<?xml version="1.0" encoding="UTF-8"?>
<svg width="1000px" height="1000px" viewBox="0 0 1000 1000" version="1.1" xmlns="http://www.w3.org/2000/svg" xmlns:xlink="http://www.w3.org/1999/xlink">
    <title>Cityverse #4850 Lucerne</title>
    <g id="Normal" stroke="none" stroke-width="1" fill="none" fill-rule="evenodd">
        <rect fill="#000000" x="0" y="0" width="1000" height="1000"></rect>
        <text id="name" font-family="Georgia" font-size="100" font-weight="normal" fill="#FFFFFF">
            <tspan x="80" y="228">Lucerne</tspan>
            <tspan x="80" y="244"></tspan>
        </text>
        <g transform="translate(85.000000, 342.000000)" fill="#FFFFFF">
            <text id="coordinate" font-family="Georgia" font-size="50" font-weight="normal">
                <tspan x="82" y="46">47.0523,8.3059</tspan>
            </text>
            <g transform="translate(0.000000, 0.000000)" fill-rule="nonzero">
                <path d="M24.51,57 L23.0394,55.9821429 C20.5884,54.4553571 0,39.1875 0,25.4464286 C0,11.1964286 10.7844,0 24.51,0 C38.2356,0 49.02,11.1964286 49.02,25.4464286 C49.02,39.1875 28.4316,53.9464286 25.9806,55.9821429 L24.51,57 Z M24.51,3.99 C13.224,3.99 3.99,13.566 3.99,25.27 C3.99,34.314 17.841,46.55 24.51,51.87 C31.179,46.55 45.03,34.314 45.03,25.27 C45.03,13.566 35.796,3.99 24.51,3.99 Z M24.51,33.06 C19.9835294,33.06 15.96,29.4327273 15.96,24.2509091 C15.96,19.0690909 19.9835294,15.96 24.51,15.96 C29.0364706,15.96 33.06,19.5872727 33.06,24.7690909 C33.06,29.9509091 29.0364706,33.06 24.51,33.06 Z M24.51,19.38 C21.5785714,19.38 19.38,21.5785714 19.38,24.51 C19.38,27.4414286 21.5785714,29.64 24.51,29.64 C27.4414286,29.64 29.64,27.4414286 29.64,24.51 C29.64,21.5785714 27.4414286,19.38 24.51,19.38 Z"></path>
            </g>
        </g>
        <g transform="translate(80.000000, 439.000000)" fill="#FFFFFF">
            <text id="elevation" font-family="Georgia" font-size="50" font-weight="normal">
                <tspan x="87" y="46">440.78 m</tspan>
            </text>
            <g fill-rule="nonzero">
                <path d="M28.3214085,4.46137153 L50.534278,18.2583623 L28.3214085,32.0817419 L6.10853909,18.2583623 L28.3214085,4.46137153 Z M1.17728208,16.2044271 C0.46939526,16.6584116 0.0420567228,17.4365515 0.0420567228,18.2715567 C0.0420567228,19.1065619 0.46939526,19.8847018 1.17728208,20.3386863 L25.9801721,35.8289641 C27.4038031,36.739812 29.2345714,36.739812 30.6582024,35.8289641 L55.4610924,20.3386863 C56.1689792,19.8847018 56.5963178,19.1065619 56.5963178,18.2715567 C56.5963178,17.4365515 56.1689792,16.6584116 55.4610924,16.2044271 L30.6582024,0.722945602 C29.2359146,-0.192398649 27.4024599,-0.192398649 25.9801721,0.722945602 L1.17283951,16.2044271 L1.17728208,16.2044271 Z"></path>
                <path d="M50.534278,38.7801215 L28.3214085,52.6078993 L6.10853909,38.7801215 L13.9941077,33.7090567 L9.92026749,31.0833623 L1.25724841,36.6602141 C0.532784842,37.1278477 0.0959355189,37.9261173 0.0959355189,38.7823206 C0.0959355189,39.6385239 0.532784842,40.4367935 1.25724841,40.9044271 L25.886878,56.2759549 C27.3643489,57.2329586 29.2740256,57.2329586 30.7514964,56.2759549 L55.3766835,40.9044271 C56.1011471,40.4367935 56.5379964,39.6385239 56.5379964,38.7823206 C56.5379964,37.9261173 56.1011471,37.1278477 55.3766835,36.6602141 L46.7136644,31.0833623 L42.6398242,33.7222512 L50.534278,38.7801215 Z"></path>
            </g>
        </g>
        <g transform="translate(80.000000, 536.000000)" fill="#FFFFFF">
            <text id="continent" font-family="Georgia" font-size="50" font-weight="normal">
                <tspan x="87" y="46">Europe</tspan>
            </text>
            <g fill-rule="nonzero">
                <path d="M28.5,0 C12.760875,0 0,12.7573125 0,28.5 C0,44.239125 12.760875,57 28.5,57 C44.239125,57 57,44.239125 57,28.5 C57,12.7573125 44.239125,0 28.5,0 M6.9646875,39.5401875 L17.9870625,39.5401875 C18.82425,44.50275 20.2100625,48.735 21.9485625,51.79875 C15.4718703,49.9638532 10.046228,45.5250431 6.9646875,39.5401875 M28.5,52.725 C27.1569375,52.725 23.9649375,48.200625 22.351125,39.5401875 L34.648875,39.5401875 C33.0350625,48.200625 29.8430625,52.725 28.5,52.725 M35.0514375,51.79875 C36.7899375,48.735 38.17575,44.50275 39.0129375,39.5401875 L50.0353125,39.5401875 C46.953772,45.5250431 41.5281297,49.9638532 35.0514375,51.79875 M5.25825,35.275875 C4.6276875,33.1205625 4.275,30.85125 4.275,28.5 C4.275,26.14875 4.6276875,23.883 5.2546875,21.73125 L17.434875,21.73125 C17.2246875,23.904375 17.1,26.163 17.1,28.5 C17.1,30.837 17.2246875,33.095625 17.434875,35.26875 L5.2974375,35.26875 C5.2831875,35.26875 5.2725,35.275875 5.25825,35.275875 M21.7561875,35.26875 C21.5069724,33.0210402 21.3797234,30.7614785 21.375,28.5 C21.375,26.0383125 21.53175,23.826 21.7561875,21.73125 L35.2438125,21.73125 C35.4646875,23.826 35.625,26.0383125 35.625,28.5 C35.625,30.958125 35.4646875,33.174 35.2438125,35.26875 L21.7561875,35.26875 M51.6099375,35.26875 L39.5615625,35.26875 C39.7753125,33.095625 39.9,30.837 39.9,28.5 C39.9,26.163 39.7753125,23.904375 39.5615625,21.73125 L51.5386875,21.73125 C51.606375,21.73125 51.6669375,21.6991875 51.734625,21.6920625 C52.36875,23.8545 52.725,26.1345 52.725,28.5 C52.725,30.858375 52.36875,33.1348125 51.7381875,35.2936875 C51.691875,35.290125 51.65625,35.26875 51.6099375,35.26875 M21.9485625,5.1976875 C20.2100625,8.2614375 18.82425,12.4936875 17.9870625,17.45625 L6.9646875,17.45625 C10.046228,11.4713944 15.4718703,7.03258431 21.9485625,5.1976875 M28.5,4.275 C29.8430625,4.275 33.0350625,8.7958125 34.6453125,17.45625 L22.351125,17.45625 C23.9649375,8.7958125 27.1569375,4.275 28.5,4.275 M50.0353125,17.45625 L39.009375,17.45625 C38.17575,12.4936875 36.7899375,8.2614375 35.0514375,5.1976875 C41.5281297,7.03258431 46.953772,11.4713944 50.0353125,17.45625"></path>
            </g>
        </g>
        <g transform="translate(86.000000, 633.000000)" fill="#FFFFFF">
            <text id="population" font-family="Georgia" font-size="50" font-weight="normal">
                <tspan x="81" y="46">81,691</tspan>
            </text>
            <g transform="translate(0.000000, 6.000000)" fill-rule="nonzero">
                <path d="M23.3896461,28.5 C15.5171318,28.5 9.13964613,22.1193529 9.13964613,14.25 C9.13964613,6.38064708 15.5171318,0 23.3896461,0 C31.2621604,0 37.6396461,6.38064708 37.6396461,14.25 C37.6396461,22.1193529 31.2621604,28.5 23.3896461,28.5 Z M23.3896461,24.51 C29.0570747,24.51 33.6496461,19.9151294 33.6496461,14.25 C33.6496461,8.5848706 29.0570747,3.99 23.3896461,3.99 C17.7222176,3.99 13.1296461,8.5848706 13.1296461,14.25 C13.1296461,19.9151294 17.7222176,24.51 23.3896461,24.51 Z M23.4902344,57 C10.5277638,57 0.0196461299,53.8549412 0.0196461299,45.8481177 C0.0196461299,37.8412942 10.5277638,31.35 23.4902344,31.35 C36.452705,31.35 46.9608226,37.8412941 46.9608226,45.8481177 C46.9608226,53.8549412 36.452705,57 23.4902344,57 Z M23.3896461,53.01 C36.5110462,53.01 43.3396461,49.8668188 43.3396461,46.2496659 C43.3396461,41.0692377 34.8656461,35.34 23.3896461,35.34 C11.9136461,35.34 3.43964613,41.0692376 3.43964613,46.2496659 C3.43964613,49.8668188 10.2682462,53.01 23.3896461,53.01 Z"></path>
            </g>
        </g>
        <g transform="translate(80.000000, 743.000000)" fill="#FFFFFF">
            <text id="timezone" font-family="Georgia" font-size="50" font-weight="normal">
                <tspan x="87" y="46">Europe/Zurich</tspan>
            </text>
            <path d="M28.4969385,0 C12.7556982,0.00155859375 0,12.7618213 0,28.5 C0,44.2396816 12.7603184,57 28.5,57 C44.2396816,57 57,44.2396816 57,28.5 L57,28.5030615 C57,12.7633799 44.2396816,0.00306152344 28.5,0.00306152344 L28.4969385,0 Z M28.4969385,53.2041006 C14.8508379,52.9637988 3.98693848,41.7085811 4.22724023,28.065542 C4.45991602,14.7599385 15.1897207,4.03007813 28.4969385,3.79589941 C42.1399219,4.03620117 53.0069385,15.2914189 52.7665811,28.934458 C52.532458,42.2400615 41.8025977,52.9699219 28.4969385,53.2041006 Z M40.8504639,30.3979775 L28.4954355,30.3979775 L28.4954355,18.0474023 C28.4929343,17.5252824 28.0716377,17.101928 27.5495361,17.0968828 L25.6469385,17.0968828 C25.1242495,17.1011111 24.7020474,17.5247023 24.6995361,18.0474023 L24.6995361,33.2463633 C24.7012268,33.7696497 25.1236664,34.1941495 25.6469385,34.1983857 L40.8459551,34.1983857 C41.3722492,34.1983857 41.7993771,33.7726546 41.8011,33.2463633 L41.8011,31.35 C41.8019363,31.0968373 41.7014193,30.8538687 41.5219666,30.6752944 C41.3425138,30.4967202 41.0990549,30.3973966 40.8458994,30.3994805 L40.8505752,30.3994805 L40.8504639,30.3979775 Z" fill-rule="nonzero"></path>
        </g>
    </g>
</svg>
